<?xml version="1.0" encoding="UTF-8"?>
<svg id="Layer_1" data-name="Layer 1" xmlns="http://www.w3.org/2000/svg" viewBox="0 0 200 200">
  <defs>
    <style>
      .cls-1 {
        fill: #fff;
      }
    </style>
  </defs>
  <rect class="cls-1" width="200" height="200"/>
  <g>
    <g>
      <polygon points="62.8 99.57 70.47 99.57 70.47 96.58 62.8 96.58 62.8 93.02 71.48 93.02 71.48 89.95 59 89.95 59 106.47 71.79 106.47 71.79 103.4 62.8 103.4 62.8 99.57"/>
      <polygon points="90.08 99.96 81.87 89.95 78.71 89.95 78.71 106.47 82.48 106.47 82.48 96.45 90.7 106.47 93.85 106.47 93.85 89.95 90.08 89.95 90.08 99.96"/>
      <rect x="101.64" y="89.95" width="3.84" height="16.52"/>
      <path d="M117.58,94.39c.48-.47,1.05-.84,1.71-1.1.66-.26,1.38-.39,2.17-.39.85,0,1.63.15,2.34.46.71.31,1.37.79,1.98,1.43l2.43-2.27c-.8-.93-1.79-1.64-2.96-2.12-1.17-.49-2.49-.73-3.95-.73-1.32,0-2.54.21-3.64.62-1.1.42-2.06,1.01-2.87,1.78-.82.77-1.45,1.67-1.9,2.71-.45,1.04-.67,2.18-.67,3.42s.22,2.38.67,3.42c.45,1.04,1.08,1.94,1.88,2.71.8.77,1.75,1.37,2.85,1.78,1.1.42,2.31.62,3.61.62,1.18,0,2.36-.18,3.54-.53,1.18-.36,2.23-.88,3.14-1.57v-6.7h-3.49v4.86c-.25.13-.51.25-.77.33-.71.25-1.45.38-2.21.38s-1.5-.13-2.16-.4c-.66-.27-1.22-.64-1.7-1.11-.48-.47-.85-1.04-1.11-1.69-.26-.65-.39-1.36-.39-2.11s.13-1.5.39-2.15c.26-.64.63-1.2,1.11-1.67Z"/>
      <polygon points="144.66 100.2 138.48 89.95 135.31 89.95 135.31 106.47 138.88 106.47 138.88 96.73 143.74 104.69 145.44 104.69 150.31 96.61 150.35 106.47 153.91 106.47 153.91 89.95 150.72 89.95 144.66 100.2"/>
      <polygon points="170.67 89.95 166.89 89.95 159.55 106.47 163.47 106.47 164.94 102.93 166.15 100.03 168.77 93.74 171.38 100.03 172.59 102.93 174.06 106.47 178.08 106.47 170.67 89.95"/>
    </g>
    <path d="M36,94.92s-.71.98-1.88,1.04h-.22c-.24-.01-.5-.06-.77-.16-.43-.17-.72-.5-.9-.93-.57-1.31-.13-3.49.27-4.3l3.02,3.74.48.61Z"/>
    <path d="M41.13,94.7c-.17.51-.48.91-.96,1.09-.27.1-.53.15-.77.16h-.22c-1.18-.06-1.89-1.04-1.89-1.04l.71-.88,2.8-3.47c.38.78.8,2.82.33,4.14Z"/>
    <path d="M51.36,91.51c0-1.11-.6-2.15-1.55-2.7l-11.61-6.7c-.96-.56-2.15-.56-3.11,0l-11.62,6.7c-.96.55-1.55,1.59-1.55,2.7v13.4c0,1.11.59,2.15,1.55,2.7l11.62,6.7c.96.55,2.15.55,3.11,0l11.61-6.7c.96-.56,1.55-1.59,1.55-2.7v-8.51l-7.09,4.09v8.61c-1.91,0-1.91-1.3-3.82-1.3s-1.91,1.3-3.82,1.3-1.91-1.3-3.82-1.3-1.91,1.3-3.82,1.3v-2.42l7.3-4.21,7.97-4.6,5.66-3.26v-.02s1.43-.84,1.43-.84v-2.24ZM44.28,95.23l-15.27,8.81v-10.16c0-4.22,3.42-7.64,7.63-7.64s7.64,3.42,7.64,7.64v1.35Z"/>
  </g>
</svg>