<?xml version="1.0" encoding="UTF-8"?>
<svg id="Layer_1" data-name="Layer 1" xmlns="http://www.w3.org/2000/svg" viewBox="0 0 200 200">
  <defs>
    <style>
      .cls-1 {
        fill: #fff;
      }

      .cls-2 {
        fill: #79edfc;
      }
    </style>
  </defs>
  <rect width="200" height="200"/>
  <g>
    <g>
      <polygon class="cls-1" points="62.8 101.37 70.47 101.37 70.47 98.38 62.8 98.38 62.8 94.81 71.48 94.81 71.48 91.74 59 91.74 59 108.26 71.79 108.26 71.79 105.19 62.8 105.19 62.8 101.37"/>
      <polygon class="cls-1" points="90.08 101.76 81.87 91.74 78.71 91.74 78.71 108.26 82.48 108.26 82.48 98.25 90.7 108.26 93.85 108.26 93.85 91.74 90.08 91.74 90.08 101.76"/>
      <rect class="cls-1" x="101.64" y="91.74" width="3.84" height="16.52"/>
      <path class="cls-1" d="M117.58,96.18c.48-.47,1.05-.84,1.71-1.1.66-.26,1.38-.39,2.17-.39.85,0,1.63.15,2.34.46.71.31,1.37.79,1.98,1.43l2.43-2.27c-.8-.93-1.79-1.64-2.96-2.12-1.17-.49-2.49-.73-3.95-.73-1.32,0-2.54.21-3.64.62-1.1.42-2.06,1.01-2.87,1.78-.82.77-1.45,1.67-1.9,2.71-.45,1.04-.67,2.18-.67,3.42s.22,2.38.67,3.42c.45,1.04,1.08,1.94,1.88,2.71.8.77,1.75,1.37,2.85,1.78,1.1.42,2.31.62,3.61.62,1.18,0,2.36-.18,3.54-.53,1.18-.36,2.23-.88,3.14-1.57v-6.7h-3.49v4.86c-.25.13-.51.25-.77.33-.71.25-1.45.38-2.21.38s-1.5-.13-2.16-.4c-.66-.27-1.22-.64-1.7-1.11-.48-.47-.85-1.04-1.11-1.69-.26-.65-.39-1.36-.39-2.11s.13-1.5.39-2.15c.26-.64.63-1.2,1.11-1.67Z"/>
      <polygon class="cls-1" points="144.66 102 138.48 91.74 135.31 91.74 135.31 108.26 138.88 108.26 138.88 98.52 143.74 106.49 145.44 106.49 150.31 98.4 150.35 108.26 153.91 108.26 153.91 91.74 150.72 91.74 144.66 102"/>
      <polygon class="cls-1" points="170.67 91.74 166.89 91.74 159.55 108.26 163.47 108.26 164.94 104.72 166.15 101.82 168.77 95.53 171.38 101.82 172.59 104.72 174.06 108.26 178.08 108.26 170.67 91.74"/>
    </g>
    <path class="cls-2" d="M36,96.71s-.71.98-1.88,1.04h-.22c-.24-.01-.5-.06-.77-.16-.43-.17-.72-.5-.9-.93-.57-1.31-.13-3.49.27-4.3l3.02,3.74.48.61Z"/>
    <path class="cls-2" d="M41.13,96.5c-.17.51-.48.91-.96,1.09-.27.1-.53.15-.77.16h-.22c-1.18-.06-1.89-1.04-1.89-1.04l.71-.88,2.8-3.47c.38.78.8,2.82.33,4.14Z"/>
    <path class="cls-1" d="M51.36,93.3c0-1.11-.6-2.15-1.55-2.7l-11.61-6.7c-.96-.56-2.15-.56-3.11,0l-11.62,6.7c-.96.55-1.55,1.59-1.55,2.7v13.4c0,1.11.59,2.15,1.55,2.7l11.62,6.7c.96.55,2.15.55,3.11,0l11.61-6.7c.96-.56,1.55-1.59,1.55-2.7v-8.51l-7.09,4.09v8.61c-1.91,0-1.91-1.3-3.82-1.3s-1.91,1.3-3.82,1.3-1.91-1.3-3.82-1.3-1.91,1.3-3.82,1.3v-2.42l7.3-4.21,7.97-4.6,5.66-3.26v-.02s1.43-.84,1.43-.84v-2.24ZM44.28,97.02l-15.27,8.81v-10.16c0-4.22,3.42-7.64,7.63-7.64s7.64,3.42,7.64,7.64v1.35Z"/>
  </g>
</svg>