<?xml version="1.0" encoding="UTF-8"?>
<svg id="Layer_1" data-name="Layer 1" xmlns="http://www.w3.org/2000/svg" viewBox="0 0 200 200">
  <defs>
    <style>
      .cls-1 {
        fill: #fff;
      }

      .cls-2 {
        fill: #79edfc;
      }
    </style>
  </defs>
  <rect class="cls-1" x=".23" width="200" height="200"/>
  <g>
    <path d="M97.94,89.51s-2.26,3.13-6,3.32h-.71c-.76-.04-1.58-.2-2.45-.52-1.39-.53-2.29-1.6-2.88-2.97-1.81-4.19-.41-11.12.87-13.71l9.63,11.92,1.55,1.95Z"/>
    <path d="M114.3,88.83c-.55,1.63-1.53,2.9-3.07,3.48-.85.32-1.69.48-2.47.52h-.69c-3.75-.2-6.02-3.32-6.02-3.32l2.27-2.81,8.92-11.07c1.23,2.49,2.54,9.01,1.07,13.2Z"/>
    <path d="M146.93,78.64c0-3.53-1.9-6.84-4.96-8.6l-37.02-21.37c-3.07-1.78-6.86-1.78-9.91,0l-37.03,21.37c-3.07,1.76-4.94,5.06-4.94,8.6v42.72c0,3.55,1.86,6.84,4.94,8.61l37.03,21.37c3.05,1.76,6.84,1.76,9.91,0l37.02-21.37c3.05-1.78,4.96-5.06,4.96-8.61v-27.12l-22.59,13.04v27.46c-6.09,0-6.09-4.14-12.17-4.14s-6.09,4.14-12.18,4.14-6.07-4.14-12.17-4.14-6.07,4.14-12.17,4.14v-7.71l23.27-13.43,25.42-14.67,18.05-10.41-.04-.07,4.58-2.66v-7.14ZM124.33,90.5l-48.69,28.1v-32.4c0-13.45,10.89-24.35,24.33-24.35s24.35,10.91,24.35,24.35v4.3Z"/>
    <path class="cls-2" d="M99.98,61.85c-13.45,0-24.33,10.91-24.33,24.35v32.4l48.69-28.1v-4.3c0-13.45-10.89-24.35-24.35-24.35ZM91.94,92.83h-.71c-.76-.04-1.58-.2-2.45-.52-1.39-.53-2.29-1.6-2.88-2.97-1.81-4.19-.41-11.12.87-13.71l9.63,11.92,1.55,1.95s-2.26,3.13-6,3.32ZM114.3,88.83c-.55,1.63-1.53,2.9-3.07,3.48-.85.32-1.69.48-2.47.52h-.69c-3.75-.2-6.02-3.32-6.02-3.32l2.27-2.81,8.92-11.07c1.23,2.49,2.54,9.01,1.07,13.2Z"/>
  </g>
</svg>